# xmcd
#
# Track frame offsets: 
#        150
#        26294
#        48164
#        72909
#        93711
#        121736
#        146355
#        170250
#        203347
#        225852
#
# Disc length: 3335 seconds
#
# Revision: 0
# Processed by: cddbd v1.5.2PL0 Copyright (c) Steve Scherf et al.
# Submitted via: ExactAudioCopy v1.0b3
#
DISCID=6f0d050a
DTITLE=Elvis Phuong - Tat Nuoc Dau Dinh
DYEAR=2005
DGENRE=
TTITLE0=Que huong
TTITLE1=Loi ve xom nho
TTITLE2=Qua cau gio bay
TTITLE3=Xom dem
TTITLE4=Tat nuoc dau dinh
TTITLE5=Loi cu ta ve
TTITLE6=Co hang ca phe
TTITLE7=Ai ve song Tuong
TTITLE8=Chieu tren que huong toi
TTITLE9=Nang len xom ngheo
EXTD=
EXTT0=
EXTT1=
EXTT2=
EXTT3=
EXTT4=
EXTT5=
EXTT6=
EXTT7=
EXTT8=
EXTT9=
PLAYORDER=
